<svg width="30" height="34" viewBox="0 0 30 34" fill="none" xmlns="http://www.w3.org/2000/svg">
<g filter="url(#filter0_d_751_1567)">
<path fill-rule="evenodd" clip-rule="evenodd" d="M24 13C24 20 15 26 15 26C15 26 6 20 6 13C6 10.6131 6.94821 8.32387 8.63604 6.63604C10.3239 4.94821 12.6131 4 15 4C17.3869 4 19.6761 4.94821 21.364 6.63604C23.0518 8.32387 24 10.6131 24 13ZM15 16C16.6569 16 18 14.6569 18 13C18 11.3431 16.6569 10 15 10C13.3431 10 12 11.3431 12 13C12 14.6569 13.3431 16 15 16Z" fill="#3FBA3B"/>
</g>
<defs>
<filter id="filter0_d_751_1567" x="0" y="0" width="30" height="34" filterUnits="userSpaceOnUse" color-interpolation-filters="sRGB">
<feFlood flood-opacity="0" result="BackgroundImageFix"/>
<feColorMatrix in="SourceAlpha" type="matrix" values="0 0 0 0 0 0 0 0 0 0 0 0 0 0 0 0 0 0 127 0" result="hardAlpha"/>
<feOffset dy="2"/>
<feGaussianBlur stdDeviation="3"/>
<feComposite in2="hardAlpha" operator="out"/>
<feColorMatrix type="matrix" values="0 0 0 0 0 0 0 0 0 0 0 0 0 0 0 0 0 0 0.25 0"/>
<feBlend mode="normal" in2="BackgroundImageFix" result="effect1_dropShadow_751_1567"/>
<feBlend mode="normal" in="SourceGraphic" in2="effect1_dropShadow_751_1567" result="shape"/>
</filter>
</defs>
</svg>
