<svg width="159" height="279" viewBox="0 0 159 279" fill="none" xmlns="http://www.w3.org/2000/svg">
<path d="M119.606 90.1315C118.819 95.9109 114.146 100.338 108.114 101.757C108.114 101.757 85.8878 159.782 100.128 188.88C122.414 219.582 148.786 96.9287 143.34 66.0629C134.426 4.90351 70.0427 55.4178 70.0427 55.4178C46.769 74.8584 45.7735 90.4138 45.7735 90.4138C45.7735 90.4138 41.3981 105.687 57.9044 125.083C74.4107 144.479 87.6187 132.675 91.2512 118.561C94.8838 104.446 94.5421 104.647 94.7872 99.9372C89.2975 96.9584 85.8284 91.4687 86.6084 85.7115L89.1118 67.2441C89.3941 65.1789 91.4518 63.7601 93.7101 64.0647C95.9684 64.3692 97.573 66.2932 97.2907 68.3509L95.1215 84.3744C94.973 85.4812 95.8124 86.5138 96.9935 86.6698C98.1747 86.8258 99.2592 86.0607 99.4078 84.9538L101.592 68.8487C101.874 66.7835 103.932 65.3647 106.19 65.6692C108.448 65.9738 110.053 67.8978 109.771 69.9555L107.564 86.2315C107.416 87.3384 108.226 88.3635 109.37 88.5195C110.514 88.6755 111.568 87.9029 111.717 86.7961L113.879 70.8767C114.168 68.7521 116.234 67.2738 118.492 67.5784C120.75 67.8829 122.347 69.8589 122.058 71.9835L119.554 90.4509" fill="#FB6B04"/>
<path d="M55.7054 11.9979C60.2888 22.7694 66.5659 35.7099 66.6699 47.1648C51.8054 41.4374 35.8339 31.1339 31.5922 15.6676C28.5762 -4.1295 49.1979 -2.91864 55.7054 12.0054V11.9979Z" fill="#3FBA3D"/>
<path d="M79.6328 35.5612C78.9048 36.4823 74.2322 41.0732 73.8905 41.1623C71.7511 37.8343 69.7825 31.7949 69.4779 29.9526C68.9357 26.7063 68.5345 22.2418 69.1288 18.9955C70.2951 12.5549 75.0196 6.85718 81.3636 4.67318C81.6311 4.58404 82.1808 4.39089 82.4557 4.30918C84.5728 3.69261 87.1431 3.64061 88.5248 5.62404C89.6094 7.16918 90.2557 9.82861 90.1368 11.6932C89.8099 16.7669 88.3688 21.6178 86.0065 26.0898" fill="#3FBA3D"/>
<path d="M26.9865 60.328C22.5071 60.5137 10.0123 58.04 15.0711 51.3914C29.1854 32.8349 48.8637 41.5189 59.5163 52.5652C50.8471 58.7012 32.7734 60.3503 26.9865 60.328Z" fill="#3FBA3D"/>
<path d="M150.273 211.398H158.743V232.871C158.743 235.123 158.178 237.129 157.049 238.887C155.92 240.646 154.389 242.019 152.457 243.006C150.525 243.962 148.415 244.44 146.127 244.44C143.838 244.44 141.728 243.962 139.796 243.006C137.894 242.019 136.378 240.646 135.249 238.887C134.12 237.129 133.555 235.123 133.555 232.871V211.398H142.025V232.871C142.025 233.797 142.456 234.506 143.318 235C144.21 235.463 145.146 235.694 146.127 235.694C147.286 235.694 148.267 235.463 149.069 235C149.871 234.537 150.273 233.828 150.273 232.871V211.398Z" fill="#FC6B02"/>
<path d="M114.532 244.441C111.62 244.441 108.93 243.7 106.463 242.219C103.996 240.708 102.035 238.671 100.579 236.111C99.152 233.55 98.4387 230.758 98.4387 227.734C98.4387 224.711 99.152 221.919 100.579 219.358C102.035 216.798 103.996 214.777 106.463 213.296C108.93 211.784 111.62 211.028 114.532 211.028C117.445 211.028 120.135 211.784 122.601 213.296C125.068 214.777 127.015 216.798 128.442 219.358C129.898 221.919 130.626 224.711 130.626 227.734C130.626 230.758 129.898 233.55 128.442 236.111C127.015 238.671 125.068 240.708 122.601 242.219C120.135 243.7 117.445 244.441 114.532 244.441ZM114.532 235.648C115.9 235.648 117.163 235.293 118.322 234.583C119.511 233.874 120.447 232.918 121.13 231.714C121.814 230.48 122.156 229.154 122.156 227.734C122.156 226.315 121.814 225.004 121.13 223.801C120.447 222.567 119.511 221.595 118.322 220.885C117.163 220.176 115.9 219.821 114.532 219.821C113.165 219.821 111.887 220.176 110.698 220.885C109.539 221.595 108.618 222.567 107.934 223.801C107.251 225.004 106.909 226.315 106.909 227.734C106.909 229.154 107.251 230.48 107.934 231.714C108.618 232.918 109.539 233.874 110.698 234.583C111.887 235.293 113.165 235.648 114.532 235.648Z" fill="#FC6B02"/>
<path d="M79.6248 225.235H97.1004V228.66C97.1004 231.498 96.3723 234.136 94.916 236.573C93.4597 238.98 91.4981 240.893 89.0313 242.312C86.5942 243.731 83.964 244.441 81.1405 244.441C78.2279 244.441 75.5382 243.7 73.0714 242.219C70.6046 240.708 68.6431 238.671 67.1868 236.111C65.7602 233.55 65.0469 230.758 65.0469 227.734C65.0469 224.711 65.7602 221.919 67.1868 219.358C68.6431 216.798 70.6046 214.777 73.0714 213.296C75.5382 211.784 78.2279 211.028 81.1405 211.028C83.6668 211.028 86.0147 211.599 88.1843 212.741C90.3836 213.851 92.2411 215.394 93.7569 217.368L87.1144 222.829C86.4011 221.903 85.5243 221.178 84.4841 220.654C83.4439 220.099 82.3294 219.821 81.1405 219.821C79.7734 219.821 78.4954 220.176 77.3066 220.885C76.1475 221.595 75.2262 222.567 74.5426 223.801C73.859 225.004 73.5172 226.315 73.5172 227.734C73.5172 229.154 73.859 230.48 74.5426 231.714C75.2262 232.918 76.1475 233.874 77.3066 234.583C78.4954 235.293 79.7734 235.648 81.1405 235.648C82.0916 235.648 82.9981 235.463 83.86 235.093C84.7516 234.722 85.5392 234.213 86.2227 233.565H79.6248V225.235Z" fill="#FC6B02"/>
<path d="M53.6665 211.398H62.1369V232.871C62.1369 235.123 61.5722 237.129 60.4428 238.887C59.3134 240.646 57.7828 242.019 55.851 243.006C53.9191 243.962 51.809 244.44 49.5205 244.44C47.232 244.44 45.1219 243.962 43.19 243.006C41.2879 242.019 39.7722 240.646 38.6428 238.887C37.5134 237.129 36.9487 235.123 36.9487 232.871V211.398H45.4191V232.871C45.4191 233.797 45.85 234.506 46.7119 235C47.6035 235.463 48.5397 235.694 49.5205 235.694C50.6796 235.694 51.6604 235.463 52.4628 235C53.2653 234.537 53.6665 233.828 53.6665 232.871V211.398Z" fill="#FC6B02"/>
<path d="M16.6078 224.634L24.2311 211.398H32.7015V243.793H24.2311V227.549L17.6332 238.98H15.5825L8.9845 227.549V243.793H0.51416V211.398H8.9845L16.6078 224.634Z" fill="#FC6B02"/>
<path d="M122.879 256.046C124.742 256.046 126.138 256.62 127.069 257.769C128.02 258.918 128.495 260.731 128.495 263.207C128.495 264.752 128.317 266.129 127.961 267.337C127.604 268.546 127.109 269.576 126.475 270.428C125.841 271.26 125.098 271.894 124.246 272.329C123.394 272.765 122.473 272.983 121.483 272.983C120.433 272.983 119.611 272.755 119.017 272.3C118.422 271.844 117.957 271.2 117.62 270.368C117.561 271.081 117.511 271.626 117.471 272.002C117.432 272.379 117.402 272.676 117.382 272.894C117.362 273.132 117.343 273.34 117.323 273.518C117.323 273.696 117.303 273.934 117.263 274.231C117.244 274.528 117.214 274.934 117.174 275.449C117.135 275.964 117.075 276.678 116.996 277.589C116.976 277.826 116.927 277.985 116.847 278.064C116.768 278.143 116.6 278.183 116.342 278.183H115.273C114.658 278.183 114.153 278.114 113.757 277.975C113.381 277.856 113.074 277.678 112.836 277.44C112.618 277.202 112.46 276.905 112.361 276.549C112.281 276.212 112.242 275.816 112.242 275.36C112.242 275.162 112.271 274.627 112.331 273.756C112.39 272.884 112.46 271.844 112.539 270.636C112.638 269.407 112.737 268.09 112.836 266.684C112.955 265.277 113.064 263.94 113.163 262.672C113.262 261.385 113.341 260.246 113.401 259.255C113.48 258.265 113.539 257.581 113.579 257.205C113.599 256.769 113.648 256.511 113.727 256.432C113.787 256.373 113.945 256.343 114.203 256.343H115.362C116.431 256.343 117.204 256.571 117.679 257.026C118.175 257.462 118.422 257.987 118.422 258.601C118.878 257.69 119.462 257.036 120.175 256.64C120.908 256.244 121.81 256.046 122.879 256.046ZM120.71 259.998C119.7 259.998 118.957 260.434 118.482 261.305C118.006 262.177 117.769 263.366 117.769 264.871C117.769 265.386 117.798 265.891 117.858 266.386C117.937 266.882 118.066 267.327 118.244 267.724C118.422 268.12 118.66 268.437 118.957 268.674C119.274 268.912 119.67 269.031 120.146 269.031C120.998 269.031 121.711 268.615 122.285 267.783C122.86 266.951 123.147 265.644 123.147 263.861C123.147 263.366 123.107 262.89 123.028 262.434C122.969 261.959 122.85 261.543 122.671 261.186C122.493 260.83 122.246 260.543 121.929 260.325C121.612 260.107 121.206 259.998 120.71 259.998Z" fill="#3FBA3B"/>
<path d="M107.302 272.686C106.688 272.686 106.182 272.626 105.786 272.508C105.41 272.369 105.103 272.181 104.865 271.943C104.647 271.705 104.489 271.418 104.39 271.081C104.31 270.725 104.271 270.319 104.271 269.863C104.271 269.566 104.281 269.15 104.3 268.615C104.34 268.06 104.4 267.308 104.479 266.357C104.558 265.386 104.647 264.168 104.746 262.702C104.865 261.216 105.004 259.384 105.162 257.205C105.182 256.769 105.232 256.511 105.311 256.432C105.37 256.373 105.529 256.343 105.786 256.343H106.945C107.559 256.343 108.054 256.402 108.431 256.521C108.827 256.64 109.134 256.818 109.352 257.056C109.59 257.294 109.748 257.581 109.827 257.918C109.926 258.255 109.976 258.631 109.976 259.047C109.976 259.344 109.956 259.79 109.916 260.384C109.877 260.978 109.817 261.791 109.738 262.821C109.679 263.831 109.59 265.099 109.471 266.624C109.352 268.13 109.203 269.952 109.025 272.092C109.005 272.329 108.956 272.488 108.876 272.567C108.797 272.646 108.629 272.686 108.371 272.686H107.302ZM105.192 252.837C105.192 252.044 105.479 251.42 106.054 250.965C106.628 250.509 107.401 250.281 108.371 250.281C109.223 250.281 109.837 250.46 110.214 250.816C110.61 251.153 110.808 251.608 110.808 252.183C110.808 252.916 110.531 253.53 109.976 254.025C109.441 254.501 108.649 254.738 107.599 254.738C105.994 254.738 105.192 254.104 105.192 252.837Z" fill="#3FBA3B"/>
<path d="M87.1042 272.686C86.8863 272.686 86.7773 272.577 86.7773 272.359L86.8665 270.755C86.8863 270.576 86.916 270.358 86.9556 270.101C86.9952 269.824 87.0844 269.596 87.2231 269.417C87.5598 268.803 87.9659 268.14 88.4413 267.427C88.9168 266.713 89.4913 265.842 90.1648 264.812C90.8383 263.782 91.6208 262.544 92.5122 261.097C93.4234 259.632 94.4733 257.849 95.6619 255.749H88.8871C88.7286 255.749 88.6295 255.719 88.5899 255.66C88.5701 255.6 88.5602 255.491 88.5602 255.333L88.6493 253.669C88.6692 253.411 88.6989 253.164 88.7385 252.926C88.7979 252.668 88.897 252.441 89.0356 252.243C89.1941 252.044 89.412 251.886 89.6893 251.767C89.9667 251.648 90.3332 251.589 90.7888 251.589H102.14C102.258 251.589 102.367 251.619 102.466 251.678C102.566 251.737 102.615 251.846 102.615 252.005L102.496 253.609C102.457 254.124 102.338 254.55 102.14 254.887C102.08 254.986 101.793 255.462 101.278 256.313C100.763 257.145 100.109 258.205 99.3168 259.493C98.5244 260.78 97.633 262.217 96.6425 263.801C95.6718 265.386 94.6912 266.961 93.7008 268.526H101.248C101.367 268.526 101.476 268.556 101.575 268.615C101.674 268.675 101.724 268.784 101.724 268.942L101.605 270.695C101.565 271.289 101.397 271.775 101.1 272.151C100.822 272.508 100.238 272.686 99.3465 272.686H87.1042Z" fill="#3FBA3B"/>
<path d="M82.3082 260.355C82.2487 261.107 82.1794 261.85 82.1002 262.583C82.0407 263.316 81.9813 264.009 81.9219 264.663C81.8624 265.317 81.8129 265.901 81.7733 266.416C81.7535 266.931 81.7436 267.327 81.7436 267.605C81.7436 268.12 81.803 268.467 81.9219 268.645C82.0407 268.803 82.2388 268.883 82.5162 268.883C82.7341 268.883 82.9223 268.843 83.0807 268.764C83.2392 268.684 83.3878 268.595 83.5264 268.496C83.6651 268.397 83.784 268.308 83.883 268.229C84.0019 268.15 84.1306 268.11 84.2693 268.11C84.408 268.11 84.5367 268.189 84.6556 268.348C84.7744 268.506 84.8339 268.873 84.8339 269.447C84.8339 270.537 84.5367 271.398 83.9424 272.032C83.3482 272.666 82.328 272.983 80.8819 272.983C79.4556 272.983 78.3958 272.656 77.7024 272.003C77.0289 271.329 76.6922 270.309 76.6922 268.942C76.6922 268.645 76.7021 268.298 76.7219 267.902C76.7615 267.486 76.811 266.951 76.8704 266.297C76.9299 265.644 76.9992 264.841 77.0784 263.891C77.1775 262.94 77.2765 261.761 77.3756 260.355H75.8007C75.6423 260.355 75.5432 260.325 75.5036 260.265C75.4838 260.186 75.4739 260.077 75.4739 259.939L75.563 258.423C75.5828 258.166 75.6125 257.918 75.6522 257.68C75.7116 257.423 75.8106 257.195 75.9493 256.997C76.1078 256.799 76.3257 256.64 76.603 256.521C76.8804 256.403 77.2468 256.343 77.7024 256.343C77.8411 255.987 77.9996 255.561 78.1779 255.065C78.3562 254.57 78.5344 254.095 78.7127 253.639C78.891 253.164 79.0594 252.767 79.2179 252.451C79.3962 252.134 79.5546 251.975 79.6933 251.975H80.555C81.387 251.975 81.9615 252.233 82.2785 252.748C82.5954 253.263 82.7539 253.877 82.7539 254.59C82.7539 254.986 82.7242 255.571 82.6647 256.343H85.7847C86.1017 256.343 86.2602 256.482 86.2602 256.759L86.1413 258.364C86.1017 258.958 85.9333 259.443 85.6362 259.82C85.3588 260.176 84.7744 260.355 83.883 260.355H82.3082Z" fill="#3FBA3B"/>
<path d="M58.2847 269.031C58.2847 267.248 59.087 265.852 60.6915 264.841C62.2961 263.831 64.6633 263.286 67.7932 263.207C67.8131 262.989 67.823 262.811 67.823 262.672C67.8428 262.514 67.8527 262.326 67.8527 262.108C67.8527 261.474 67.7338 260.969 67.4961 260.592C67.2584 260.216 66.7631 260.028 66.0104 260.028C65.5944 260.028 65.2576 260.087 65.0001 260.206C64.7426 260.325 64.5346 260.493 64.3761 260.711C64.2176 260.909 64.0889 261.157 63.9898 261.454C63.8908 261.751 63.8016 262.078 63.7224 262.434C63.6828 262.613 63.5936 262.732 63.455 262.791C63.3163 262.831 63.0984 262.85 62.8012 262.85C60.7807 262.85 59.7704 262.088 59.7704 260.562C59.7704 259.948 59.909 259.364 60.1864 258.809C60.4835 258.255 60.9094 257.779 61.4641 257.383C62.0386 256.967 62.7517 256.64 63.6035 256.402C64.4553 256.165 65.4458 256.046 66.575 256.046C68.7738 256.046 70.3685 256.502 71.359 257.413C72.3494 258.324 72.8447 259.612 72.8447 261.276C72.8447 261.494 72.815 261.89 72.7555 262.464C72.7159 263.019 72.6565 263.613 72.5772 264.247C72.5178 264.861 72.4584 265.446 72.399 266C72.3593 266.555 72.3395 266.941 72.3395 267.159C72.3395 267.654 72.4287 268.011 72.607 268.229C72.7852 268.427 72.9833 268.566 73.2012 268.645C73.439 268.724 73.647 268.783 73.8252 268.823C74.0035 268.863 74.0927 268.962 74.0927 269.12C74.0927 269.556 74.0332 270.002 73.9144 270.457C73.7955 270.913 73.5974 271.329 73.3201 271.705C73.0626 272.082 72.6961 272.389 72.2207 272.626C71.765 272.864 71.2005 272.983 70.527 272.983C69.5761 272.983 68.863 272.755 68.3875 272.3C67.9121 271.844 67.5951 271.21 67.4367 270.398C66.9612 271.091 66.3372 271.695 65.5647 272.21C64.8119 272.726 63.8214 272.983 62.5932 272.983C61.999 272.983 61.4344 272.914 60.8995 272.775C60.3845 272.636 59.9289 272.409 59.5327 272.092C59.1563 271.775 58.8492 271.369 58.6115 270.873C58.3936 270.358 58.2847 269.744 58.2847 269.031ZM67.5258 265.644C67.0108 265.644 66.5056 265.683 66.0104 265.762C65.5151 265.842 65.0694 265.97 64.6732 266.149C64.2969 266.307 63.9898 266.525 63.7521 266.802C63.5144 267.08 63.3955 267.417 63.3955 267.813C63.3955 268.268 63.5342 268.585 63.8115 268.764C64.1087 268.942 64.4256 269.031 64.7624 269.031C65.0793 269.031 65.3963 268.962 65.7132 268.823C66.0302 268.684 66.3075 268.476 66.5452 268.199C66.8028 267.902 67.0207 267.545 67.199 267.129C67.3772 266.713 67.4862 266.218 67.5258 265.644Z" fill="#3FBA3B"/>
<path d="M51.3257 256.848C51.1672 257.324 50.9592 257.948 50.7017 258.72C50.464 259.473 50.1965 260.305 49.8994 261.216C49.6022 262.128 49.2952 263.098 48.9782 264.128C48.6613 265.139 48.3344 266.129 47.9977 267.1C47.6807 268.07 47.3638 269.001 47.0468 269.893C46.7299 270.764 46.4426 271.527 46.1851 272.181C46.1059 272.339 45.9375 272.468 45.68 272.567C45.4422 272.646 45.056 272.686 44.5211 272.686C44.1843 272.686 43.8377 272.666 43.4811 272.627C43.1245 272.587 42.7878 272.508 42.4708 272.389C42.1737 272.27 41.9062 272.112 41.6685 271.913C41.4506 271.715 41.2822 271.468 41.1634 271.171C40.8662 270.16 40.579 269.041 40.3017 267.813C40.0441 266.565 39.7866 265.297 39.5291 264.009C39.2716 262.722 39.0141 261.464 38.7565 260.236C38.5188 258.988 38.2712 257.859 38.0137 256.848C38.0137 257.126 38.0038 257.601 37.984 258.275C37.9641 258.948 37.9443 259.731 37.9245 260.622C37.9047 261.513 37.875 262.474 37.8354 263.504C37.8156 264.534 37.7958 265.545 37.776 266.535C37.7562 267.506 37.7363 268.417 37.7165 269.269C37.6967 270.101 37.6868 270.784 37.6868 271.319C37.6868 271.913 37.6472 272.29 37.568 272.448C37.5085 272.607 37.3897 272.686 37.2114 272.686H35.5771C34.448 272.686 33.6457 272.468 33.1702 272.032C32.7146 271.577 32.4868 270.913 32.4868 270.041C32.4868 269.804 32.4967 269.408 32.5165 268.853C32.5561 268.278 32.6057 267.605 32.6651 266.832C32.7245 266.06 32.784 265.218 32.8434 264.307C32.9226 263.376 33.0019 262.435 33.0811 261.484C33.1801 260.196 33.2594 259.126 33.3188 258.275C33.3981 257.403 33.4575 256.68 33.4971 256.105C33.5367 255.531 33.5664 255.065 33.5862 254.709C33.6259 254.352 33.6457 254.035 33.6457 253.758C33.6655 253.481 33.6754 253.223 33.6754 252.985C33.6952 252.728 33.7051 252.411 33.7051 252.035C33.7051 251.876 33.7645 251.767 33.8834 251.708C34.0022 251.628 34.1112 251.589 34.2102 251.589H38.3702C39.1428 251.589 39.7767 251.718 40.272 251.975C40.7672 252.213 41.1733 252.589 41.4902 253.104C41.8072 253.619 42.0647 254.293 42.2628 255.125C42.4609 255.937 42.6392 256.908 42.7977 258.037C42.976 259.166 43.1641 260.473 43.3622 261.959C43.5801 263.425 43.8575 265.079 44.1942 266.921C44.5112 265.693 44.7786 264.673 44.9965 263.861C45.2144 263.049 45.3927 262.375 45.5314 261.84C45.6899 261.286 45.8186 260.83 45.9177 260.473C46.0167 260.117 46.1059 259.79 46.1851 259.493C46.2643 259.176 46.3535 258.839 46.4525 258.483C46.5516 258.126 46.6704 257.68 46.8091 257.145C46.9478 256.611 47.1161 255.947 47.3142 255.155C47.5321 254.342 47.7996 253.322 48.1165 252.094C48.1561 251.975 48.2255 251.866 48.3245 251.767C48.4236 251.648 48.6019 251.589 48.8594 251.589H53.4948C54.1287 251.589 54.6339 251.658 55.0102 251.797C55.4064 251.916 55.7135 252.094 55.9314 252.332C56.1493 252.569 56.2979 252.867 56.3771 253.223C56.4563 253.56 56.496 253.956 56.496 254.412C56.496 254.867 56.4662 255.61 56.4068 256.64C56.3672 257.651 56.2979 258.8 56.1988 260.087C56.1196 261.355 56.0304 262.672 55.9314 264.039C55.8521 265.406 55.763 266.674 55.664 267.843C55.5847 269.011 55.5154 270.002 55.456 270.814C55.3965 271.626 55.3569 272.102 55.3371 272.24C55.3173 272.399 55.2777 272.518 55.2182 272.597C55.1588 272.656 55.04 272.686 54.8617 272.686H53.2274C52.0982 272.686 51.296 272.468 50.8205 272.032C50.3649 271.577 50.1371 270.992 50.1371 270.279C50.1371 270.061 50.1569 269.665 50.1965 269.091C50.256 268.516 50.3253 267.843 50.4045 267.07C50.4838 266.297 50.5729 265.456 50.672 264.544C50.771 263.613 50.8601 262.692 50.9394 261.781C51.0186 260.87 51.088 259.988 51.1474 259.136C51.2266 258.265 51.2861 257.502 51.3257 256.848Z" fill="#3FBA3B"/>
</svg>
