<svg width="158" height="68" viewBox="0 0 158 68" fill="none" xmlns="http://www.w3.org/2000/svg">
<path d="M149.542 1.06689H158V22.5873C158 24.8445 157.436 26.8543 156.308 28.6168C155.181 30.3792 153.652 31.7552 151.723 32.7446C149.794 33.7031 147.687 34.1824 145.402 34.1824C143.117 34.1824 141.01 33.7031 139.081 32.7446C137.181 31.7552 135.668 30.3792 134.54 28.6168C133.412 26.8543 132.848 24.8445 132.848 22.5873V1.06689H141.306V22.5873C141.306 23.5149 141.737 24.2261 142.597 24.7208C143.488 25.1846 144.423 25.4165 145.402 25.4165C146.559 25.4165 147.539 25.1846 148.34 24.7208C149.141 24.257 149.542 23.5459 149.542 22.5873V1.06689Z" fill="#FC6B02"/>
<path d="M113.853 34.1823C110.945 34.1823 108.259 33.4402 105.796 31.9561C103.333 30.441 101.374 28.4003 99.9197 25.8339C98.4952 23.2675 97.783 20.4692 97.783 17.4391C97.783 14.4089 98.4952 11.6106 99.9197 9.04424C101.374 6.47787 103.333 4.4526 105.796 2.96843C108.259 1.45334 110.945 0.695801 113.853 0.695801C116.762 0.695801 119.448 1.45334 121.911 2.96843C124.374 4.4526 126.318 6.47787 127.742 9.04424C129.197 11.6106 129.924 14.4089 129.924 17.4391C129.924 20.4692 129.197 23.2675 127.742 25.8339C126.318 28.4003 124.374 30.441 121.911 31.9561C119.448 33.4402 116.762 34.1823 113.853 34.1823ZM113.853 25.3701C115.219 25.3701 116.48 25.0145 117.637 24.3033C118.824 23.5922 119.759 22.6336 120.442 21.4278C121.124 20.191 121.466 18.8614 121.466 17.4391C121.466 16.0167 121.124 14.7026 120.442 13.4967C119.759 12.2599 118.824 11.286 117.637 10.5748C116.48 9.86362 115.219 9.50804 113.853 9.50804C112.488 9.50804 111.212 9.86362 110.025 10.5748C108.868 11.286 107.948 12.2599 107.265 13.4967C106.582 14.7026 106.241 16.0167 106.241 17.4391C106.241 18.8614 106.582 20.191 107.265 21.4278C107.948 22.6336 108.868 23.5922 110.025 24.3033C111.212 25.0145 112.488 25.3701 113.853 25.3701Z" fill="#FC6B02"/>
<path d="M78.9963 14.9345H96.4467V18.3667C96.4467 21.2113 95.7196 23.855 94.2654 26.2977C92.8112 28.7095 90.8524 30.6265 88.3892 32.0488C85.9557 33.4712 83.3292 34.1823 80.5098 34.1823C77.6014 34.1823 74.9156 33.4402 72.4524 31.9561C69.9892 30.441 68.0304 28.4003 66.5762 25.8339C65.1517 23.2675 64.4395 20.4692 64.4395 17.4391C64.4395 14.4089 65.1517 11.6106 66.5762 9.04424C68.0304 6.47787 69.9892 4.4526 72.4524 2.96843C74.9156 1.45334 77.6014 0.695801 80.5098 0.695801C83.0324 0.695801 85.3769 1.26782 87.5434 2.41187C89.7395 3.52499 91.5944 5.071 93.1079 7.04989L86.475 12.5228C85.7628 11.5952 84.8873 10.8685 83.8486 10.3429C82.8098 9.78633 81.6969 9.50804 80.5098 9.50804C79.1447 9.50804 77.8685 9.86362 76.6814 10.5748C75.524 11.286 74.604 12.2599 73.9214 13.4967C73.2388 14.7026 72.8975 16.0167 72.8975 17.4391C72.8975 18.8614 73.2388 20.191 73.9214 21.4278C74.604 22.6336 75.524 23.5922 76.6814 24.3033C77.8685 25.0145 79.1447 25.3701 80.5098 25.3701C81.4595 25.3701 82.3647 25.1846 83.2253 24.8135C84.1157 24.4425 84.9021 23.9323 85.5847 23.283H78.9963V14.9345Z" fill="#FC6B02"/>
<path d="M53.0754 1.06689H61.5335V22.5873C61.5335 24.8445 60.9697 26.8543 59.8419 28.6168C58.7142 30.3792 57.1858 31.7552 55.2567 32.7446C53.3277 33.7031 51.2206 34.1824 48.9354 34.1824C46.6503 34.1824 44.5432 33.7031 42.6141 32.7446C40.7148 31.7552 39.2012 30.3792 38.0735 28.6168C36.9457 26.8543 36.3818 24.8445 36.3818 22.5873V1.06689H44.8399V22.5873C44.8399 23.5149 45.2703 24.2261 46.1309 24.7208C47.0212 25.1846 47.9561 25.4165 48.9354 25.4165C50.0929 25.4165 51.0722 25.1846 51.8735 24.7208C52.6748 24.257 53.0754 23.5459 53.0754 22.5873V1.06689Z" fill="#FC6B02"/>
<path d="M16.0704 14.3316L23.6827 1.06689H32.1408V33.5331H23.6827V17.2536L17.0943 28.7095H15.0465L8.45809 17.2536V33.5331H0V1.06689H8.45809L16.0704 14.3316Z" fill="#FC6B02"/>
<path d="M122.188 45.8135C124.048 45.8135 125.442 46.3892 126.372 47.5407C127.321 48.6922 127.796 50.5088 127.796 52.9905C127.796 54.5391 127.618 55.9189 127.262 57.13C126.906 58.3411 126.411 59.3735 125.778 60.2272C125.145 61.061 124.404 61.6963 123.553 62.1331C122.703 62.5699 121.783 62.7883 120.794 62.7883C119.745 62.7883 118.924 62.56 118.331 62.1033C117.738 61.6467 117.273 61.0015 116.936 60.1676C116.877 60.8823 116.828 61.4283 116.788 61.8055C116.749 62.1827 116.719 62.4805 116.699 62.6989C116.679 62.9372 116.659 63.1456 116.64 63.3243C116.64 63.503 116.62 63.7412 116.58 64.039C116.561 64.3369 116.531 64.7438 116.491 65.26C116.452 65.7762 116.392 66.491 116.313 67.4042C116.294 67.6425 116.244 67.8013 116.165 67.8807C116.086 67.9601 115.918 67.9998 115.661 67.9998H114.592C113.979 67.9998 113.475 67.9303 113.079 67.7914C112.703 67.6722 112.397 67.4936 112.159 67.2553C111.942 67.0171 111.784 66.7193 111.685 66.3619C111.605 66.0244 111.566 65.6273 111.566 65.1707C111.566 64.9722 111.596 64.4361 111.655 63.5626C111.714 62.689 111.784 61.6467 111.863 60.4356C111.962 59.2047 112.06 57.8844 112.159 56.4748C112.278 55.0652 112.387 53.7251 112.486 52.4545C112.585 51.164 112.664 50.0224 112.723 49.0298C112.802 48.0371 112.862 47.3521 112.901 46.9749C112.921 46.5381 112.97 46.28 113.049 46.2006C113.109 46.1411 113.267 46.1113 113.524 46.1113H114.681C115.75 46.1113 116.521 46.3396 116.996 46.7962C117.49 47.233 117.738 47.7591 117.738 48.3746C118.193 47.4613 118.776 46.8062 119.488 46.4091C120.22 46.012 121.12 45.8135 122.188 45.8135ZM120.022 49.7743C119.013 49.7743 118.272 50.211 117.797 51.0846C117.322 51.9582 117.085 53.1494 117.085 54.6582C117.085 55.1744 117.114 55.6807 117.174 56.177C117.253 56.6734 117.381 57.1201 117.56 57.5172C117.738 57.9142 117.975 58.2319 118.272 58.4701C118.588 58.7084 118.984 58.8275 119.458 58.8275C120.309 58.8275 121.021 58.4106 121.595 57.5767C122.168 56.7429 122.455 55.4325 122.455 53.6457C122.455 53.1494 122.416 52.6729 122.337 52.2162C122.277 51.7398 122.159 51.3228 121.981 50.9655C121.803 50.6081 121.555 50.3202 121.239 50.1018C120.922 49.8835 120.517 49.7743 120.022 49.7743Z" fill="#3FBA3B"/>
<path d="M106.633 62.4905C106.02 62.4905 105.515 62.4309 105.12 62.3118C104.744 62.1729 104.437 61.9842 104.2 61.746C103.982 61.5078 103.824 61.2199 103.725 60.8824C103.646 60.525 103.606 60.118 103.606 59.6614C103.606 59.3636 103.616 58.9467 103.636 58.4106C103.676 57.8547 103.735 57.1003 103.814 56.1473C103.893 55.1745 103.982 53.9535 104.081 52.4843C104.2 50.9953 104.338 49.1588 104.497 46.975C104.516 46.5382 104.566 46.2801 104.645 46.2007C104.704 46.1411 104.863 46.1113 105.12 46.1113H106.277C106.89 46.1113 107.385 46.1709 107.76 46.29C108.156 46.4091 108.463 46.5878 108.68 46.8261C108.918 47.0643 109.076 47.3522 109.155 47.6897C109.254 48.0272 109.303 48.4044 109.303 48.8213C109.303 49.1191 109.284 49.5658 109.244 50.1614C109.204 50.7571 109.145 51.5711 109.066 52.6034C109.007 53.616 108.918 54.8866 108.799 56.4153C108.68 57.9242 108.532 59.7507 108.354 61.8949C108.334 62.1331 108.285 62.292 108.205 62.3714C108.126 62.4508 107.958 62.4905 107.701 62.4905H106.633ZM104.526 42.5972C104.526 41.8031 104.813 41.1777 105.387 40.7211C105.96 40.2644 106.732 40.0361 107.701 40.0361C108.552 40.0361 109.165 40.2148 109.541 40.5722C109.936 40.9097 110.134 41.3663 110.134 41.9421C110.134 42.6767 109.857 43.2921 109.303 43.7885C108.769 44.2649 107.978 44.5032 106.93 44.5032C105.327 44.5032 104.526 43.8679 104.526 42.5972Z" fill="#3FBA3B"/>
<path d="M86.4648 62.4907C86.2472 62.4907 86.1384 62.3815 86.1384 62.1631L86.2274 60.555C86.2472 60.3763 86.2769 60.1579 86.3165 59.8998C86.356 59.6219 86.445 59.3936 86.5835 59.2149C86.9198 58.5994 87.3253 57.9343 87.8 57.2196C88.2748 56.5049 88.8484 55.6313 89.521 54.5989C90.1935 53.5665 90.9749 52.3257 91.865 50.8764C92.7749 49.4072 93.8233 47.6204 95.0101 45.5159H88.2451C88.0868 45.5159 87.9879 45.4861 87.9484 45.4266C87.9286 45.367 87.9187 45.2578 87.9187 45.099L88.0077 43.4313C88.0275 43.1732 88.0572 42.925 88.0967 42.6868C88.1561 42.4287 88.255 42.2004 88.3934 42.0018C88.5517 41.8033 88.7693 41.6445 89.0462 41.5254C89.3231 41.4062 89.6891 41.3467 90.1441 41.3467H101.478C101.597 41.3467 101.706 41.3765 101.805 41.436C101.904 41.4956 101.953 41.6048 101.953 41.7636L101.835 43.3717C101.795 43.8879 101.676 44.3148 101.478 44.6523C101.419 44.7516 101.132 45.2281 100.618 46.0818C100.104 46.9156 99.451 47.9778 98.6597 49.2682C97.8685 50.5587 96.9783 51.9981 95.9893 53.5864C95.02 55.1747 94.0409 56.753 93.0518 58.3215H100.588C100.707 58.3215 100.816 58.3513 100.915 58.4108C101.014 58.4704 101.063 58.5796 101.063 58.7384L100.944 60.4954C100.905 61.091 100.737 61.5775 100.44 61.9547C100.163 62.312 99.5795 62.4907 98.6894 62.4907H86.4648Z" fill="#3FBA3B"/>
<path d="M81.6757 50.1319C81.6164 50.8864 81.5471 51.6309 81.468 52.3655C81.4087 53.1 81.3493 53.7949 81.29 54.4501C81.2307 55.1053 81.1812 55.6909 81.1416 56.2071C81.1219 56.7233 81.112 57.1204 81.112 57.3983C81.112 57.9145 81.1713 58.262 81.29 58.4407C81.4087 58.5995 81.6065 58.6789 81.8834 58.6789C82.101 58.6789 82.2889 58.6392 82.4472 58.5598C82.6054 58.4804 82.7538 58.391 82.8922 58.2918C83.0307 58.1925 83.1494 58.1031 83.2483 58.0237C83.367 57.9443 83.4956 57.9046 83.634 57.9046C83.7725 57.9046 83.9011 57.984 84.0198 58.1429C84.1384 58.3017 84.1978 58.669 84.1978 59.2447C84.1978 60.3367 83.9011 61.2003 83.3076 61.8356C82.7142 62.4709 81.6955 62.7886 80.2515 62.7886C78.8273 62.7886 77.769 62.461 77.0767 61.8058C76.4041 61.1308 76.0678 60.1084 76.0678 58.7385C76.0678 58.4407 76.0777 58.0932 76.0975 57.6961C76.1371 57.2792 76.1865 56.7432 76.2459 56.088C76.3052 55.4328 76.3744 54.6288 76.4536 53.6758C76.5525 52.7228 76.6514 51.5415 76.7503 50.1319H75.1777C75.0195 50.1319 74.9206 50.1022 74.881 50.0426C74.8612 49.9632 74.8513 49.854 74.8513 49.715L74.9403 48.1962C74.9601 47.9381 74.9898 47.69 75.0293 47.4517C75.0887 47.1936 75.1876 46.9653 75.3261 46.7668C75.4843 46.5682 75.7019 46.4094 75.9788 46.2903C76.2558 46.1712 76.6217 46.1116 77.0767 46.1116C77.2151 45.7542 77.3734 45.3274 77.5514 44.831C77.7294 44.3347 77.9075 43.8582 78.0855 43.4016C78.2635 42.9251 78.4317 42.528 78.5899 42.2104C78.7679 41.8927 78.9262 41.7339 79.0646 41.7339H79.9251C80.7559 41.7339 81.3296 41.992 81.6461 42.5082C81.9625 43.0244 82.1208 43.6398 82.1208 44.3546C82.1208 44.7516 82.0911 45.3373 82.0318 46.1116H85.1473C85.4638 46.1116 85.622 46.2506 85.622 46.5285L85.5033 48.1367C85.4638 48.7323 85.2956 49.2187 84.9989 49.5959C84.722 49.9533 84.1384 50.1319 83.2483 50.1319H81.6757Z" fill="#3FBA3B"/>
<path d="M57.687 58.8275C57.687 57.0407 58.4881 55.641 60.0904 54.6285C61.6926 53.6159 64.0565 53.07 67.1818 52.9905C67.2016 52.7721 67.2115 52.5935 67.2115 52.4545C67.2313 52.2957 67.2412 52.1071 67.2412 51.8887C67.2412 51.2534 67.1225 50.7471 66.8851 50.3699C66.6477 49.9927 66.1532 49.804 65.4016 49.804C64.9862 49.804 64.6499 49.8636 64.3927 49.9827C64.1356 50.1018 63.9279 50.2706 63.7696 50.489C63.6114 50.6875 63.4828 50.9357 63.3839 51.2335C63.285 51.5313 63.196 51.8589 63.1169 52.2162C63.0773 52.3949 62.9883 52.5141 62.8498 52.5736C62.7114 52.6133 62.4938 52.6332 62.1971 52.6332C60.1794 52.6332 59.1706 51.8688 59.1706 50.3401C59.1706 49.7246 59.309 49.1389 59.586 48.583C59.8827 48.0271 60.308 47.5507 60.8618 47.1536C61.4355 46.7367 62.1476 46.4091 62.9982 46.1708C63.8488 45.9326 64.8378 45.8135 65.9653 45.8135C68.161 45.8135 69.7533 46.2701 70.7424 47.1834C71.7314 48.0966 72.226 49.3871 72.226 51.0548C72.226 51.2732 72.1963 51.6703 72.1369 52.246C72.0974 52.8019 72.038 53.3975 71.9589 54.0329C71.8996 54.6483 71.8402 55.234 71.7809 55.7899C71.7413 56.3458 71.7215 56.7329 71.7215 56.9513C71.7215 57.4477 71.8106 57.805 71.9886 58.0234C72.1666 58.222 72.3644 58.3609 72.582 58.4403C72.8194 58.5198 73.0271 58.5793 73.2051 58.619C73.3831 58.6587 73.4722 58.758 73.4722 58.9168C73.4722 59.3536 73.4128 59.8003 73.2941 60.2569C73.1754 60.7136 72.9776 61.1305 72.7007 61.5077C72.4435 61.8849 72.0776 62.1927 71.6029 62.4309C71.1479 62.6691 70.5841 62.7883 69.9116 62.7883C68.9621 62.7883 68.25 62.56 67.7753 62.1033C67.3005 61.6467 66.984 61.0114 66.8258 60.1974C66.351 60.8923 65.7279 61.4978 64.9565 62.014C64.2048 62.5302 63.2158 62.7883 61.9894 62.7883C61.3959 62.7883 60.8322 62.7188 60.2981 62.5798C59.7838 62.4408 59.3288 62.2125 58.9332 61.8949C58.5574 61.5772 58.2508 61.1702 58.0134 60.6739C57.7958 60.1577 57.687 59.5422 57.687 58.8275ZM66.9148 55.4325C66.4005 55.4325 65.8961 55.4722 65.4016 55.5516C64.907 55.6311 64.462 55.7601 64.0663 55.9388C63.6905 56.0976 63.3839 56.316 63.1465 56.594C62.9092 56.8719 62.7905 57.2094 62.7905 57.6065C62.7905 58.0631 62.9289 58.3808 63.2059 58.5595C63.5026 58.7381 63.8191 58.8275 64.1554 58.8275C64.4719 58.8275 64.7883 58.758 65.1048 58.619C65.4213 58.48 65.6983 58.2716 65.9356 57.9936C66.1928 57.6958 66.4104 57.3385 66.5884 56.9215C66.7664 56.5046 66.8752 56.0083 66.9148 55.4325Z" fill="#3FBA3B"/>
<path d="M50.7381 46.6178C50.5799 47.0943 50.3722 47.7197 50.115 48.494C49.8777 49.2484 49.6106 50.0822 49.3139 50.9955C49.0172 51.9088 48.7106 52.8816 48.3941 53.914C48.0776 54.9265 47.7512 55.9192 47.4149 56.892C47.0984 57.8648 46.7819 58.798 46.4655 59.6914C46.149 60.5649 45.8621 61.3293 45.605 61.9845C45.5259 62.1433 45.3577 62.2723 45.1006 62.3716C44.8632 62.451 44.4775 62.4907 43.9434 62.4907C43.6071 62.4907 43.261 62.4709 42.9049 62.4312C42.5488 62.3915 42.2126 62.312 41.8961 62.1929C41.5994 62.0738 41.3323 61.915 41.0949 61.7164C40.8774 61.5179 40.7092 61.2697 40.5905 60.9719C40.2938 59.9594 40.007 58.8377 39.7301 57.6067C39.4729 56.356 39.2158 55.0853 38.9586 53.7949C38.7015 52.5044 38.4443 51.2437 38.1872 50.0128C37.9498 48.762 37.7025 47.6303 37.4454 46.6178C37.4454 46.8957 37.4355 47.3722 37.4157 48.0473C37.3959 48.7223 37.3761 49.5065 37.3564 50.3999C37.3366 51.2933 37.3069 52.2562 37.2673 53.2886C37.2476 54.321 37.2278 55.3335 37.208 56.3262C37.1882 57.299 37.1684 58.2123 37.1487 59.066C37.1289 59.8998 37.119 60.5848 37.119 61.1208C37.119 61.7164 37.0794 62.0937 37.0003 62.2525C36.941 62.4113 36.8223 62.4907 36.6443 62.4907H35.0123C33.8848 62.4907 33.0837 62.2723 32.609 61.8356C32.154 61.3789 31.9265 60.7138 31.9265 59.8403C31.9265 59.602 31.9364 59.205 31.9562 58.6491C31.9957 58.0733 32.0452 57.3983 32.1045 56.624C32.1639 55.8497 32.2232 55.0059 32.2826 54.0927C32.3617 53.1595 32.4408 52.2165 32.5199 51.2635C32.6188 49.9731 32.698 48.901 32.7573 48.0473C32.8364 47.1737 32.8958 46.449 32.9353 45.8733C32.9749 45.2975 33.0046 44.831 33.0244 44.4736C33.0639 44.1163 33.0837 43.7986 33.0837 43.5206C33.1035 43.2427 33.1134 42.9846 33.1134 42.7464C33.1331 42.4883 33.143 42.1706 33.143 41.7934C33.143 41.6346 33.2024 41.5254 33.3211 41.4658C33.4398 41.3864 33.5485 41.3467 33.6474 41.3467H37.8014C38.5729 41.3467 39.2059 41.4757 39.7004 41.7338C40.1949 41.9721 40.6004 42.3493 40.9169 42.8655C41.2334 43.3817 41.4906 44.0567 41.6884 44.8905C41.8862 45.7045 42.0642 46.6774 42.2225 47.809C42.4005 48.9407 42.5884 50.251 42.7862 51.74C43.0038 53.2092 43.2807 54.867 43.617 56.7133C43.9335 55.4824 44.2005 54.46 44.4181 53.646C44.6357 52.832 44.8138 52.1569 44.9522 51.6209C45.1105 51.065 45.239 50.6084 45.3379 50.251C45.4369 49.8936 45.5259 49.5661 45.605 49.2682C45.6841 48.9506 45.7731 48.6131 45.872 48.2557C45.9709 47.8984 46.0896 47.4517 46.2281 46.9156C46.3666 46.3796 46.5347 45.7145 46.7325 44.9203C46.9501 44.1063 47.2171 43.0839 47.5336 41.8529C47.5732 41.7338 47.6424 41.6246 47.7413 41.5254C47.8402 41.4062 48.0183 41.3467 48.2754 41.3467H52.9041C53.5371 41.3467 54.0415 41.4162 54.4174 41.5551C54.813 41.6743 55.1196 41.8529 55.3372 42.0912C55.5548 42.3294 55.7031 42.6272 55.7822 42.9846C55.8614 43.3221 55.9009 43.7192 55.9009 44.1758C55.9009 44.6324 55.8713 45.377 55.8119 46.4093C55.7724 47.4219 55.7031 48.5734 55.6042 49.8639C55.5251 51.1345 55.4361 52.4547 55.3372 53.8246C55.2581 55.1945 55.169 56.4652 55.0701 57.6365C54.991 58.8079 54.9218 59.8006 54.8624 60.6146C54.8031 61.4286 54.7635 61.905 54.7438 62.044C54.724 62.2028 54.6844 62.322 54.6251 62.4014C54.5657 62.4609 54.447 62.4907 54.269 62.4907H52.6371C51.5096 62.4907 50.7085 62.2723 50.2337 61.8356C49.7788 61.3789 49.5513 60.7932 49.5513 60.0785C49.5513 59.8601 49.5711 59.4631 49.6106 58.8873C49.67 58.3115 49.7392 57.6365 49.8183 56.8622C49.8974 56.0879 49.9865 55.2442 50.0854 54.3309C50.1843 53.3978 50.2733 52.4746 50.3524 51.5613C50.4315 50.6481 50.5008 49.7646 50.5601 48.9109C50.6392 48.0373 50.6986 47.273 50.7381 46.6178Z" fill="#3FBA3B"/>
</svg>
